<?xml version="1.0" encoding="utf-8"?>
<!-- Generator: Adobe Illustrator 24.1.2, SVG Export Plug-In . SVG Version: 6.00 Build 0)  -->
<svg version="1.1" id="Layer_1" xmlns="http://www.w3.org/2000/svg" xmlns:xlink="http://www.w3.org/1999/xlink" x="0px" y="0px"
	 viewBox="0 0 157 92" style="enable-background:new 0 0 157 92;" xml:space="preserve">
<style type="text/css">
	.st0{fill:#C41E36;}
	.st1{fill:#FBFBFA;}
	.st2{fill:#F9F7F4;}
	.st3{fill:#F8F6F3;}
	.st4{fill:#F2EEE9;}
	.st5{fill:#ECE5DB;}
	.st6{fill:#EAE2D8;}
	.st7{fill:#EBE7E1;}
	.st8{fill:#F8F6F5;}
	.st9{fill:#F3EFED;}
	.st10{font-family:'LuggageRoundRegular';}
	.st11{font-size:21.9377px;}
	.st12{fill:#FCFCFC;}
</style>
<g>
	<path class="st0" d="M54.4,54.2c0.1,1.1,1.3,1.3,1.7,2.2c1.4,0.7,2.8,1.1,4.3,0.3c0.2-0.2,0.4-0.3,0.6-0.5c1.3-1,2.6-2,2.1-3.9
		c-0.2-0.7-0.7-1.3-1.4-1.1c-1.1,0.4-0.2,1,0,1.5c1.5,3-1.1,1.8-2.2,2.2c-2.6-1.1-3.2-2.1-2.6-4.2c0.8-2.4,2.6-3.5,5-3
		c3.6,0.8,5.8,5,4.8,9.4C66.1,60.5,63.1,62,59,61c-1.2-0.4-2-1.3-3.1-1.9c-1.8-1.6-3.1-3.7-3.6-5.9c-0.4-2.3-1.3-2-2.9-1.3
		c-3,1.2-6,2.4-9,3.5c-0.9,0.4-1.9,0.8-3.2,0.1c0.7-1.4,2.1-1.8,3.4-2.3c3.1-1.3,6.3-2.6,9.5-3.8c1.6-0.6,2.5-1.6,2.4-3.5
		c-1.3-0.1-2.4,1.6-4.3,0.4c7.9-5.7,16.2-10.3,24.2-15.5c9.9-5.8,19.8-11.6,29.7-17.3c1.8-1.1,3.7-2,5.9-1.5
		c0.5,0.1,1.2,0.2,1.2,0.9c0,0.4-0.4,0.8-0.8,1.1c-2.4,1.3-4.8,2.6-7.2,3.9c-9.1,4.7-18.1,9.6-26.9,14.7c-1.4,2.2-4,2.8-6,4.1
		c-1.6,1.1-3.3,2.1-5.1,3c1.4,0.1,2.7,0.4,3.9,0.9c1,0.5,2,0.5,3,0.1c2.7-0.9,5.2-2.6,8.2-2.6c11-4,22-8,33.1-11.9
		c1.5-0.5,3-1.2,4.7-0.8c0.8,0.2,1.8,0.2,1.9,1c0.2,0.9-0.9,1.1-1.6,1.3c-1.2,0.5-2.5,0.9-3.8,1.3c-11,3.6-21.9,7.2-32.6,11.4
		c-2.5,0.9-5,1.8-7.4,2.7c-0.5,1.4,0.1,2.5,0.6,3.8c1.5,3.7,0.9,7.2-1.3,10.4c-0.5,0.8-1.1,1.6-2.2,1.3c-0.4-0.4-0.5-1-0.4-1.6
		c1.7-12.3,0.3-9.3-6.9-12.8C61.2,44,60.1,44,59,44.4c-0.3,0.1-0.5,0.1-0.8,0.1C54.1,46.6,54.2,50.4,54.4,54.2z"/>
	<path class="st1" d="M70,58.7c4-4.4,4.5-7.8,1.7-13.2c-0.7-1.4-0.7-2,1-2.2c3.7,2,4.3,9.4,2.7,13c-1.8,4.1-5.4,6.6-9.3,6.2
		c1.2-1.2,2.2-2.3,2.7-3.7C69.1,58.4,69.5,58.4,70,58.7z"/>
	<path class="st2" d="M58.5,60.3c2.7,0.7,5.4,0.9,7.1-1.9c1.6-2.6,0.9-5.3-0.6-7.8c-1-1.7-2.6-2.5-4.5-2.4c-1.9,0.1-2.9,1.4-3.2,3.1
		c-0.5,2.1,1.3,2.7,2.7,3.4c0.6-0.3,1.3-0.5,1.7,0.1c0.4,0.7-0.2,1.4-0.6,2c-0.1,0.2-0.3,0.2-0.4,0.2c-0.7,0.3-0.8-0.1-0.7-0.6
		c0.1-0.9-0.5-1-1.2-1.2c-2.3-0.6-3-2.2-2.5-4.3c0.4-1.8,0.6-3.9,2.8-4.5c2.2-0.7,3.9,0.5,5.4,1.7c3,2.5,3.9,7.2,2.3,10.7
		c-1.6,3.5-5.5,4.4-9.1,2.2C57.7,60.4,57.8,60.1,58.5,60.3z"/>
	<path class="st3" d="M70,58.7c-0.4,0-0.9,0.1-1.3,0.1c-0.2-1.7,0.7-3.3,0.4-5c-0.8-4.3-2.9-7.5-7.3-8.7c-0.9-0.4-1.9-0.1-2.8-0.2
		c-0.5-0.1-0.8-0.3-0.6-0.8c0.1-0.1,0.2-0.2,0.3-0.1c1.2-0.2,2.5-0.4,3.7,0.1c2.8,1,5.3,2.5,6.9,5.3c1.2,2.3,1.7,4.6,0.9,7.1
		C69.9,57.1,69.4,57.8,70,58.7z"/>
	<path class="st4" d="M58.4,43.9c0.2,0.2,0.4,0.4,0.6,0.6c0.2,0.1,0.2,0.2,0.2,0.3C59,44.9,59,45,58.9,45c-2.9,1-3.7,3.4-4,6.1
		c-0.1,1.1,0.4,2.2-0.5,3.2C52.8,49.5,54.3,45.4,58.4,43.9z"/>
	<path class="st5" d="M60.1,56.5c0.2,0.2,0.4,0.4,0.7,0.6c-1.7,1.1-3.3,1.3-4.6-0.7C57.5,56.5,58.8,56.5,60.1,56.5z"/>
	<path class="st6" d="M58.5,60.3c-0.3,0.2-0.5,0.5-0.8,0.7c-0.9-0.4-1.4-1-1.8-1.9C57.1,59,57.7,59.8,58.5,60.3z"/>
	<path class="st7" d="M58.9,45c0-0.2,0-0.3,0-0.5c1,0.1,2-0.4,2.8,0.5C60.8,45,59.9,45,58.9,45z"/>
	<path class="st8" d="M61.2,56.9c-0.2-0.8,1-2.4-1.2-2.2c0.4-0.9,1.4-0.3,2-0.8c0-0.1,0-0.2-0.1-0.2c-1-0.8-2.4-1.5-1.6-3.1
		c0.4-0.7,1.3-0.8,2-0.4c1.5,0.7,2,2,1.7,3.5C63.8,55.3,62.6,56.2,61.2,56.9z"/>
	<path class="st9" d="M62.3,39.8c2.8-0.2,5.6-0.4,8,1.7c-0.8,0.3-1.4,0.7-2.4,0.3c-1.9-0.9-3.9-1.3-6-1.3c-0.1,0-0.1-0.1-0.2-0.2
		C61.9,40.1,62.1,39.9,62.3,39.8z"/>
	<path class="st7" d="M62.4,43.9c-1.2,0-2.4-0.1-3.7-0.1C59.9,43.1,61.2,43.2,62.4,43.9z"/>
</g>
<g>
	<text transform="matrix(0.7636 0 0 1 24.8883 80.7988)"><tspan x="0" y="0" class="st0 st10 st11">SUSHI</tspan><tspan x="55.4" y="0" class="st10 st11"> </tspan><tspan x="60" y="0" class="st12 st10 st11">LOUNGE</tspan></text>
</g>
</svg>
